PathFileType	4	(X/Y/Z)	C:/Users/beibeiliu/ov580/test_trc/User3\sequence.7_training_dense_left.trc
DataRate	CameraRate	NumFrames	NumMarkers	Units	OrigDataRate	OrigDataStartFrame	OrigNumFrames
120	120	9	19	mm	120	101	200
Frame#	Time	ThumbCMC			ThumbMCP			ThumbIP			ThumbTip			IndexMCP			IndexPIP			IndexTip			MiddleMCP			MiddlePIP			MiddleTip			RingMCP			RingPIP			RingTip			PinkyMCP			PinkyPIP			PinkyTip			BackHand1			BackHand2			BackHand3	
		X0	Y0	Z0	X1	Y1	Z1	X2	Y2	Z2	X3	Y3	Z3	X4	Y4	Z4	X5	Y5	Z5	X6	Y6	Z6	X7	Y7	Z7	X8	Y8	Z8	X9	Y9	Z9	X10	Y10	Z10	X11	Y11	Z11	X12	Y12	Z12	X13	Y13	Z13	X14	Y14	Z14	X15	Y15	Z15	X16	Y16	Z16	X17	Y17	Z17	X18	Y18	Z18	
100	0.833333	-118.612	-16.1538	14.4936	-98.0336	-25.597	-14.0729	-88.7439	-34.086	-38.3257	-86.2043	-43.8918	-61.2066	-138.187	14.4662	-56.6084	-134.294	11.2994	-85.2392	-132.145	-7.52646	-111.815	-165.703	15.8385	-63.5001	-162.994	9.71719	-91.4711	-157.058	-17.9443	-117.314	-180.989	-9.02679	-54.3672	-176.114	-34.428	-71.3407	-164.119	-62.8448	-53.4054	-194.651	-28.1337	-40.6786	-178.79	-50.5076	-42.4464	-166.074	-54.5606	-14.9072	-182.01	7.93067	-0.191183	-176.306	0.0930568	32.7949	-144.923	9.47519	12.6221	
101	0.841667	-117.412	-15.2543	9.67487	-103.206	-26.3095	-12.3958	-93.0123	-33.7772	-39.2061	-88.9674	-42.9532	-61.3113	-138.499	13.4695	-57.0204	-133.441	9.94424	-84.5401	-133.618	-9.34587	-112.382	-165.126	13.2002	-58.9319	-164.755	5.53835	-93.6015	-162.103	-18.6433	-115.309	-180.815	-10.8608	-55.7478	-177.537	-40.6941	-70.1783	-164.658	-63.5367	-53.0735	-194.384	-29.4237	-40.8837	-178.898	-51.0946	-42.722	-166.808	-55.1709	-12.2926	-181.9	7.06283	0.777968	-180.181	-1.40755	28.494	-146.125	11.3593	10.1348	
102	0.85	-116.704	-15.1667	11.0851	-100.221	-24.6742	-14.6466	-91.817	-33.1981	-38.7129	-89.7172	-42.474	-62.0289	-137.689	14.2569	-58.5588	-133.579	9.08391	-85.9055	-134.222	-7.72954	-107.825	-167.995	12.8899	-60.4644	-161.694	6.90388	-91.1404	-160.878	-19.8467	-114.586	-183.477	-13.7587	-53.3502	-175.059	-40.773	-69.0459	-164.593	-65.1419	-50.1332	-192.396	-28.8404	-38.3996	-175.894	-52.7511	-40.1936	-166.961	-55.577	-10.528	-183.474	4.76945	0.837867	-177.029	-1.39348	29.3664	-149.558	9.62486	11.7402	
103	0.858333	-120.886	-16.9744	12.5693	-103.432	-24.685	-11.3918	-90.2684	-32.5823	-37.689	-89.6124	-40.7651	-62.1343	-141.825	13.701	-55.8434	-136.922	8.3304	-85.6976	-133.267	-10.4198	-108.181	-167.726	12.4554	-58.3746	-165.981	4.75183	-90.8752	-160.954	-18.3845	-111.585	-180.892	-13.1608	-52.982	-175.216	-39.7028	-67.9673	-162.489	-64.8788	-47.4417	-192.924	-30.2028	-39.4644	-175.738	-52.9553	-39.3682	-163.941	-54.6355	-9.83679	-183.28	3.26469	1.63913	-178.57	-2.45556	30.7531	-150.438	7.94019	13.4753	
104	0.866667	-120.704	-17.0163	15.6812	-104.803	-24.6232	-12.8875	-91.4033	-32.723	-38.6394	-90.5949	-40.0507	-64.4881	-141.077	14.0153	-55.1545	-138.466	7.33277	-86.0954	-136.56	-11.6076	-108.812	-169.81	11.9974	-57.4315	-166.61	6.10829	-88.6337	-161.426	-22.8276	-113.155	-183.297	-14.3647	-54.8957	-176.877	-37.8309	-67.9487	-162.102	-63.8141	-48.6997	-194.268	-27.8214	-35.7961	-178.204	-52.0401	-39.9552	-166.866	-56.9985	-11.3925	-185.484	5.21796	3.09807	-182.109	-2.37647	36.9403	-147.062	6.93596	16.1937	
105	0.875	-121.551	-15.3907	12.6716	-103.645	-25.0361	-10.8915	-95.4013	-31.312	-39.1042	-91.0502	-39.9337	-57.6067	-138.719	13.3048	-54.6878	-138.856	8.68781	-82.5306	-133.068	-10.7996	-108.771	-164.589	13.4986	-57.2493	-165.084	7.17375	-87.4172	-159.765	-20.1161	-112.791	-182.015	-11.5105	-49.8046	-173.933	-40.128	-68.3573	-161.29	-65.3636	-47.7046	-195.675	-30.5859	-37.6589	-180.189	-53.6584	-40.5361	-164.657	-54.9423	-15.7624	-180.559	5.33503	3.52911	-178.615	-1.75713	35.6039	-151.328	7.18189	12.5875	
106	0.883333	-116.54	-16.3184	14.5709	-99.5156	-26.3421	-8.6686	-92.5051	-32.5634	-38.908	-92.1465	-41.0327	-63.6019	-139.328	12.8147	-57.5168	-135.764	7.74699	-84.7659	-133.28	-10.6452	-106.75	-166.958	12.7459	-60.3028	-164.9	4.92645	-87.8423	-162.679	-22.9002	-113.061	-181.346	-12.513	-50.6129	-177.97	-39.4648	-66.979	-165.573	-64.597	-49.9591	-191.735	-31.5404	-40.6172	-181.255	-56.5431	-39.4413	-165.995	-56.9776	-9.60961	-183.669	2.72469	1.81671	-179.342	-4.24657	36.0877	-146.63	6.70959	15.5659	
107	0.891667	-118.869	-19.2399	15.7005	-101.598	-26.668	-13.5779	-92.9862	-34.1123	-37.0964	-89.8594	-42.0359	-61.9525	-137.573	11.564	-53.4603	-135.652	6.62473	-83.6785	-134.326	-12.5458	-106.169	-166.544	10.555	-60.1128	-163.529	2.36227	-89.9636	-161.717	-21.8244	-110.549	-182.619	-15.1654	-52.0556	-180.614	-40.4257	-67.7415	-162.967	-65.5775	-51.3827	-193.29	-31.7547	-39.7316	-180.093	-54.809	-40.5001	-165.293	-57.1052	-13.6015	-184.389	1.7084	3.14193	-178.798	-5.79151	35.7231	-147.589	7.56064	15.0403	
108	0.9	-117.991	-19.603	15.4936	-104.069	-28.11	-12.2491	-90.9336	-34.9758	-37.508	-89.0864	-43.9451	-58.4788	-137.513	10.8544	-54.1174	-134.858	6.07009	-83.9766	-129.529	-14.5114	-107.462	-163.808	11.0088	-60.0752	-163.378	0.825521	-90.9739	-158.709	-25.3512	-112.39	-182.874	-16.624	-54.7222	-180.112	-40.7295	-68.0976	-164.222	-66.3031	-50.7214	-193.633	-33.4967	-38.8769	-179.606	-58.5188	-38.4371	-164.322	-59.6991	-15.7318	-181.09	2.29159	3.3435	-177.834	-3.98619	33.7824	-148.18	4.30756	13.2271	
